#!OML:ASF X:\für Bonn\!DataBase\2005_08_10_Bjorn_Final\c3d\bjorn.ASF
:FULLY-SPECIFIED
:DEGREES
95
root 2.66092 18.2881 -1.08478 -226.546 0.648107 176.443
lowerback 13.2611 6.5616 -1.09343
upperback 16.5566 16.4812 -7.15443
thorax 13.7543 11.6206 -6.76528
lowerneck 16.4858 1.09608 0.583766
upperneck 8.05931 -0.0114197 9.25243
head -0.214881 -0.731062 2.91164
rclavicle 1.03169e-013 -4.45278e-014
rhumerus 31.8079 22.8038 -35.8041
rradius 32.048
rwrist 2.96193
rhand -2.40847 15.3585
rfingers 7.12502
rthumb 23.2816 -13.254
lclavicle 1.03169e-013 -4.45278e-014
lhumerus 34.5916 15.6061 24.4804
lradius 74.816
lwrist -6.0772
lhand -54.4367 -24.7262
lfingers 7.12502
lthumb -26.8413 3.38865
rfemur 39.0259 -0.471365 14.676
rtibia 31.1715
rfoot 13.1459 31.9096
rtoes 28.1652
lfemur -68.8752 21.6195 -19.0553
ltibia 16.5601
lfoot 4.79726 7.15372
ltoes -21.0704
96
root 2.5861 18.2325 -1.15582 -227.098 1.71029 175.794
lowerback 12.2147 6.76089 -0.176846
upperback 16.3951 16.2897 -6.71904
thorax 14.1343 11.368 -6.5794
lowerneck 18.9746 1.7325 0.65314
upperneck 8.57225 0.691037 8.08111
head -0.466694 -0.490337 2.48121
rclavicle 1.28514e-013 -8.90555e-014
rhumerus 33.4892 21.3378 -36.7576
rradius 30.5313
rwrist 4.96521
rhand -1.93361 15.2474
rfingers 7.12502
rthumb 23.7371 -13.3067
lclavicle 1.28514e-013 -8.90555e-014
lhumerus 32.486 15.7998 22.3703
lradius 76.395
lwrist -6.28736
lhand -54.8655 -25.1817
lfingers 7.12502
lthumb -27.2515 2.8695
rfemur 38.9089 0.232341 14.0209
rtibia 32.4917
rfoot 13.7087 32.3321
rtoes 28.9112
lfemur -65.7196 21.2254 -16.0414
ltibia 15.4274
lfoot 2.50861 10.5611
ltoes -21.0182
97
root 2.51063 18.1803 -1.2222 -227.595 2.66009 175.171
lowerback 11.2918 6.91221 0.721038
upperback 16.2146 16.0658 -6.34758
thorax 14.4557 11.1296 -6.48899
lowerneck 21.2503 2.27705 0.945337
upperneck 9.01841 1.2929 6.85824
head -0.679504 -0.284845 1.9931
rclavicle -3.91482e-014 -3.49861e-014
rhumerus 34.9567 19.5222 -38.3205
rradius 29.0962
rwrist 7.34773
rhand -1.47336 15.2009
rfingers 7.12502
rthumb 24.1784 -13.2951
lclavicle -3.91482e-014 -3.49861e-014
lhumerus 30.4035 15.8534 20.1963
lradius 77.8107
lwrist -6.58517
lhand -55.3078 -25.5843
lfingers 7.12502
lthumb -27.6746 2.3997
rfemur 38.7535 0.855286 13.2989
rtibia 33.7071
rfoot 14.2787 32.8282
rtoes 29.535
lfemur -63.0731 20.4966 -13.277
ltibia 15.6953
lfoot 1.27967 14.1155
ltoes -19.0251
98
root 2.43524 18.1302 -1.28502 -228.045 3.48765 174.664
lowerback 10.4525 6.96482 1.58894
upperback 16.0842 15.7391 -5.98064
thorax 14.7837 10.8619 -6.4109
lowerneck 22.9841 2.83689 1.21554
upperneck 9.73366 1.85401 5.69912
head -0.697722 -0.0863141 1.52454
rclavicle -1.49685e-013 6.04305e-014
rhumerus 36.412 17.6332 -40.0977
rradius 27.9831
rwrist 9.58126
rhand -1.05501 15.0896
rfingers 7.12502
rthumb 24.5795 -13.3525
lclavicle -1.49685e-013 6.04305e-014
lhumerus 28.2819 15.9921 18.0722
lradius 79.0071
lwrist -7.32585
lhand -55.8113 -25.3482
lfingers 7.12502
lthumb -28.1559 2.55755
rfemur 38.6169 1.38007 12.6376
rtibia 34.7866
rfoot 14.9178 33.2682
rtoes 30.1127
lfemur -60.7788 19.3916 -10.7288
ltibia 16.9509
lfoot -0.310947 16.9529
ltoes -18.3871
99
root 2.36139 18.0828 -1.34861 -228.391 4.20391 174.287
lowerback 9.65788 6.97922 2.43265
upperback 15.9287 15.3517 -5.60768
thorax 15.0414 10.5663 -6.34163
lowerneck 24.3377 3.42221 1.4091
upperneck 10.6137 2.39223 4.77317
head -0.591119 0.0964003 1.14498
rclavicle -1.51076e-014 4.13472e-014
rhumerus 37.6646 16.2541 -41.5296
rradius 27.5303
rwrist 10.5338
rhand -0.866654 14.5522
rfingers 7.12502
rthumb 24.76 -13.8652
lclavicle -1.51076e-014 4.13472e-014
lhumerus 26.1222 16.0335 15.9316
lradius 80.1187
lwrist -7.97954
lhand -56.2822 -24.7523
lfingers 7.12502
lthumb -28.6059 3.0785
rfemur 38.4521 1.80087 12.0664
rtibia 35.7568
rfoot 15.3534 33.7735
rtoes 30.2773
lfemur -58.8911 17.9483 -8.39914
ltibia 18.8236
lfoot -1.45066 18.3697
ltoes -19.992
100
root 2.29292 18.0379 -1.40936 -228.613 4.74471 174.021
lowerback 8.87063 6.95968 3.14568
upperback 15.7424 14.9027 -5.22247
thorax 15.2074 10.2236 -6.21501
lowerneck 25.3205 4.01297 1.58004
upperneck 11.6562 2.90328 4.04695
head -0.364294 0.261605 0.836747
rclavicle -5.04913e-014 -2.54444e-014
rhumerus 38.7659 15.2447 -42.5656
rradius 27.583
rwrist 10.8674
rhand -0.787786 14.0492
rfingers 7.12502
rthumb 24.8356 -14.3579
lclavicle -5.04913e-014 -2.54444e-014
lhumerus 23.9342 15.9109 13.8387
lradius 81.2493
lwrist -8.36657
lhand -56.634 -24.6288
lfingers 7.12502
lthumb -28.942 3.14492
rfemur 38.2366 2.13677 11.601
rtibia 36.6381
rfoot 15.6803 34.2665
rtoes 30.4857
lfemur -57.3485 16.162 -6.35857
ltibia 20.9818
lfoot -0.877677 18.5892
ltoes -24.4235
101
root 2.23246 17.994 -1.46783 -228.741 5.12851 173.813
lowerback 8.08218 6.92742 3.67468
upperback 15.5278 14.4329 -4.83228
thorax 15.2877 9.84972 -6.00466
lowerneck 25.9518 4.60866 1.74975
upperneck 12.8594 3.39696 3.54439
head -0.0256736 0.412735 0.606287
rclavicle -5.4467e-014 2.54444e-014
rhumerus 39.6952 14.505 -43.373
rradius 27.9712
rwrist 10.7268
rhand -0.89699 13.6356
rfingers 7.12502
rthumb 24.7309 -14.7858
lclavicle -5.4467e-014 2.54444e-014
lhumerus 21.7868 15.6164 11.9108
lradius 82.3399
lwrist -8.68948
lhand -57.0436 -24.6376
lfingers 7.12502
lthumb -29.3331 3.06839
rfemur 37.9947 2.43742 11.2291
rtibia 37.4623
rfoot 15.6284 34.8232
rtoes 30.2768
lfemur -56.0219 14.0951 -4.62326
ltibia 23.2512
lfoot 1.18589 17.9449
ltoes -25.5228
